<svg width="70" height="60" viewBox="0 0 70 60" fill="none" xmlns="http://www.w3.org/2000/svg">
<path d="M69.5 30C69.5 46.1254 56.5618 59.2289 40.5 59.4959L40.5 59.3905L40.5 57.6425L40.5 51.2132L40.5 30L40.5 8.7868L40.5 2.35755L40.5 0.609493L40.5 0.504152C56.5618 0.771076 69.5 13.8746 69.5 30Z" stroke="#05386B"/>
<path d="M68.75 30C68.75 45.7188 56.4716 58.4717 41.25 58.7455L41.25 58.6557L41.25 56.9514L41.25 50.6829L41.25 30L41.25 9.31713L41.25 3.04861L41.25 1.34426L41.25 1.25449C56.4716 1.52834 68.75 14.2812 68.75 30Z" stroke="#05386B"/>
<path d="M66.5 30C66.5 44.4795 55.3356 56.2182 41.5 56.495L41.5 56.4515L41.5 54.8782L41.5 49.0919L41.5 30L41.5 10.9081L41.5 5.12179L41.5 3.54854L41.5 3.505C55.3356 3.78177 66.5 15.5205 66.5 30Z" stroke="#05386B"/>
<path d="M65.85 30C65.85 44.1142 55.2563 55.5357 42.15 55.8196V55.7902L42.15 54.2563L42.15 48.6146L42.15 30L42.15 11.3854L42.15 5.74377L42.15 4.20985V4.18043C55.2563 4.46437 65.85 15.8858 65.85 30Z" stroke="#05386B"/>
<path d="M63.5 30C63.5 42.8636 54.9615 53.1731 44.5 53.4924L44.5 52.114L44.5 46.9706L44.5 30L44.5 13.0294L44.5 7.88604L44.5 6.50762C54.9615 6.82691 63.5 17.1364 63.5 30Z" stroke="#05386B"/>
<path d="M63 30C63 42.5392 54.8992 52.5642 45 52.8917L45 51.5611L45 46.5463L45 30L45 13.4537L45 8.43889L45 7.10827C54.8992 7.43586 63 17.4608 63 30Z" stroke="#05386B"/>
<line x1="3.5" y1="60" x2="3.5" stroke="#05386B"/>
<line x1="4.5" y1="60" x2="4.5" stroke="#05386B"/>
<line x1="6.5" y1="60" x2="6.5" stroke="#05386B"/>
<line x1="7.5" y1="60" x2="7.5" stroke="#05386B"/>
<line x1="1.5" y1="60" x2="1.5" stroke="#05386B"/>
<line x1="0.5" y1="60" x2="0.5" stroke="#05386B"/>
<line x1="35.5" y1="60" x2="35.5" stroke="#05386B"/>
<line x1="36.5" y1="60" x2="36.5" stroke="#05386B"/>
<line x1="38.5" y1="60" x2="38.5" stroke="#05386B"/>
<line x1="39.5" y1="60" x2="39.5" stroke="#05386B"/>
<line x1="33.5" y1="60" x2="33.5" stroke="#05386B"/>
<line x1="32.5" y1="60" x2="32.5" stroke="#05386B"/>
<line x1="40" y1="30.5" y2="30.5" stroke="#05386B"/>
<line x1="40" y1="29.5" y2="29.5" stroke="#05386B"/>
<line x1="40" y1="33.5" y2="33.5" stroke="#05386B"/>
<line x1="40" y1="32.5" y2="32.5" stroke="#05386B"/>
<line x1="40" y1="27.5" y2="27.5" stroke="#05386B"/>
<line x1="40" y1="26.5" y2="26.5" stroke="#05386B"/>
<path d="M41.8537 1.98979C41.8139 1.97976 41.7785 1.96288 41.7398 1.95028C41.7054 1.93908 41.6677 1.94316 41.6322 1.943C41.5795 1.94277 41.5272 1.93832 41.4744 1.93832C41.3738 1.93832 41.2742 1.95552 41.1737 1.95704C41.1619 1.95722 41.0518 1.95805 41.0536 1.96172" stroke="#5CDB95" stroke-width="0.1" stroke-linecap="square"/>
<path d="M41.732 2.06931C41.7681 2.05945 41.7923 2.05124 41.7408 2.0298C41.6848 2.00647 41.6227 1.997 41.5628 1.99029C41.4833 1.98139 41.4016 1.98341 41.3218 1.98743C41.262 1.99045 41.2025 1.99445 41.1425 1.99445" stroke="#5CDB95" stroke-width="0.1" stroke-linecap="square"/>
<path d="M41.7969 1.85155C41.7169 1.84421 41.6376 1.83617 41.5577 1.82898C41.5089 1.82459 41.4632 1.81331 41.4136 1.81249C41.3552 1.81152 41.2967 1.8015 41.2383 1.80077C41.1854 1.80011 41.1324 1.80077 41.0794 1.80077C41.0513 1.80077 41.0508 1.8019 41.0508 1.83007C41.0508 1.84584 41.0508 1.86161 41.0508 1.87738C41.0508 1.8882 41.0515 1.97033 41.0547 1.96874" stroke="#5CDB95" stroke-width="0.1" stroke-linecap="square"/>
<path d="M41.0547 1.89062V1.94531" stroke="#5CDB95" stroke-width="0.1" stroke-linecap="square"/>
<path d="M41.0898 1.91015C41.1059 1.89981 41.1161 1.89073 41.135 1.89843C41.1451 1.90257 41.1482 1.89857 41.1573 1.90147C41.1877 1.91108 41.2279 1.9122 41.26 1.91102C41.3884 1.9063 41.519 1.90751 41.6471 1.91579C41.6844 1.9182 41.7962 1.92339 41.7589 1.92165C41.65 1.91659 41.5429 1.90671 41.4349 1.89192C41.3683 1.88281 41.3018 1.87338 41.2352 1.86458C41.2112 1.8614 41.1396 1.85027 41.1628 1.85763C41.2012 1.86986 41.2494 1.86328 41.2891 1.86328" stroke="#5CDB95" stroke-width="0.1" stroke-linecap="square"/>
<path d="M41.9648 1.88281C41.9036 1.85592 41.8523 1.8164 41.7834 1.8164C41.7517 1.8164 41.7148 1.81127 41.6836 1.81835C41.6277 1.83106 41.5642 1.8164 41.5078 1.8164" stroke="#5CDB95" stroke-width="0.1" stroke-linecap="square"/>
<path d="M41.1914 1.85938C41.1634 1.84203 41.1362 1.82607 41.1037 1.81901C41.0888 1.81577 41.0738 1.81585 41.0592 1.81076C41.0541 1.80897 41.0428 1.80469 41.0547 1.80469" stroke="#5CDB95" stroke-width="0.1" stroke-linecap="square"/>
<path d="M41.2422 1.85547C41.2102 1.85294 41.1788 1.84958 41.1471 1.84397C41.1262 1.84026 41.1059 1.83417 41.0849 1.83984C41.0703 1.84377 41.0647 1.83828 41.051 1.83398C41.0389 1.83019 41.0508 1.80909 41.0508 1.79688" stroke="#5CDB95" stroke-width="0.1" stroke-linecap="square"/>
<path d="M41.6875 57.9648C41.7025 58.0565 41.707 58.1426 41.707 58.2344" stroke="#5CDB95" stroke-width="0.1"/>
<path d="M41.7422 58.0156C41.744 58.0009 41.7501 58.059 41.7504 58.0629C41.7539 58.1011 41.7501 58.0495 41.75 58.0469" stroke="#5CDB95" stroke-width="0.1"/>
<path d="M41.6953 58.0313C41.7257 58.0336 41.7627 58.0413 41.793 58.0378C41.7984 58.0371 41.7829 58.0332 41.7776 58.0321C41.7721 58.031 41.7665 58.0296 41.7609 58.03C41.7186 58.0323 41.7713 58.0333 41.7344 58.043" stroke="#5CDB95" stroke-width="0.1"/>
<path d="M41.6094 57.9453C41.6136 58.0114 41.6211 58.0762 41.6211 58.1424C41.6211 58.1718 41.6172 58.2014 41.6172 58.2305" stroke="#5CDB95" stroke-width="0.1"/>
<path d="M41.5391 57.957C41.5406 58.0483 41.5469 58.1391 41.5469 58.2305" stroke="#5CDB95" stroke-width="0.1"/>
<path d="M41.1602 57.9141C41.1714 57.9895 41.2075 58.0656 41.2535 58.1263C41.2616 58.137 41.2561 58.1515 41.2622 58.1597C41.2825 58.1873 41.3565 58.2112 41.3885 58.1905C41.425 58.1668 41.4762 58.1797 41.5156 58.1797" stroke="#5CDB95" stroke-width="0.1"/>
<path d="M41.4297 57.9531C41.453 58.0102 41.4609 58.0779 41.4609 58.1393C41.4609 58.1517 41.4629 58.1665 41.4601 58.1788C41.4561 58.1965 41.4453 58.2073 41.4453 58.2266" stroke="#5CDB95" stroke-width="0.1"/>
<path d="M41.3711 57.9453C41.3736 58.0154 41.3867 58.0865 41.3867 58.1562" stroke="#5CDB95" stroke-width="0.1"/>
<path d="M41.3047 57.9336C41.3051 57.9895 41.3072 58.0454 41.3084 58.1013C41.3085 58.1079 41.3088 58.1196 41.3084 58.127C41.3076 58.1416 41.3075 58.1289 41.3047 58.1289" stroke="#5CDB95" stroke-width="0.1"/>
<path d="M41.0586 57.9375C41.0551 57.9849 41.0477 58.0399 41.0556 58.0877C41.0601 58.1157 41.0681 58.1429 41.0701 58.1714C41.0726 58.2059 41.0664 58.2399 41.0664 58.2734" stroke="#5CDB95" stroke-width="0.1"/>
<path d="M41.1172 57.9531C41.1278 58.0421 41.1355 58.1289 41.1291 58.2181C41.128 58.2338 41.1289 58.2499 41.1289 58.2656" stroke="#5CDB95" stroke-width="0.1"/>
<path d="M41.1836 57.9492C41.2054 58.0545 41.2148 58.1588 41.2148 58.2656" stroke="#5CDB95" stroke-width="0.1"/>
<path d="M41.2305 57.9727C41.2518 58.045 41.2688 58.122 41.2773 58.197C41.2795 58.2161 41.2891 58.2347 41.2891 58.2539" stroke="#5CDB95" stroke-width="0.1"/>
<path d="M41.0195 58.082V58.2773" stroke="#5CDB95" stroke-width="0.01"/>
<path d="M41.0117 58.2773C41.0117 58.2322 41.0091 58.1863 41.0148 58.1415C41.0171 58.1231 41.0195 58.1045 41.0195 58.0859" stroke="#5CDB95" stroke-width="0.01"/>
<path d="M41.0039 58.0742C41.0047 58.1255 41.011 58.1758 41.0156 58.2266" stroke="#5CDB95" stroke-width="0.01"/>
<path d="M41.1094 58.2539C41.2995 58.2432 41.4896 58.2441 41.6797 58.2357C41.7839 58.2311 41.888 58.2212 41.9922 58.2148" stroke="#5CDB95" stroke-width="0.01"/>
<path d="M41.0234 58.2656C41.2088 58.2443 41.3945 58.2525 41.5801 58.2381C41.6591 58.2319 41.737 58.2245 41.8164 58.2227" stroke="#5CDB95" stroke-width="0.01"/>
<path d="M41.418 58.2422C41.3928 58.2392 41.4762 58.2277 41.4557 58.2266C41.441 58.2257 41.4448 58.2266 41.4627 58.2266C41.4818 58.2266 41.5009 58.2266 41.52 58.2266C41.5493 58.2266 41.5413 58.2292 41.5152 58.2335C41.4924 58.2373 41.47 58.2383 41.447 58.2383C41.4062 58.2383 41.5287 58.2392 41.5694 58.2383C41.5762 58.2381 41.5835 58.2316 41.5729 58.2283C41.5488 58.2207 41.5168 58.2272 41.4918 58.2263C41.4628 58.2254 41.4341 58.2227 41.4052 58.2227C41.386 58.2227 41.4377 58.2227 41.4371 58.2285C41.4364 58.2342 41.4035 58.2344 41.4269 58.2344C41.4491 58.2344 41.4714 58.2344 41.4937 58.2344C41.5001 58.2344 41.4808 58.2344 41.4744 58.2344C41.4738 58.2344 41.4524 58.2343 41.4703 58.2324C41.4994 58.2293 41.5287 58.2315 41.5579 58.2303C41.5688 58.2298 41.599 58.2202 41.5905 58.227C41.5828 58.2331 41.5719 58.2344 41.5625 58.2344" stroke="#5CDB95" stroke-width="0.01"/>
<rect x="40" y="2" width="1" height="56" fill="#5CDB95"/>
<path d="M40.3657 1.8708C40.3809 1.82391 40.3936 1.80816 40.4441 1.82276C40.458 1.82679 40.4722 1.83073 40.485 1.83767C40.488 1.83934 40.475 1.83749 40.475 1.84098" stroke="#5CDB95" stroke-width="0.01"/>
<path d="M39.993 1.78134C40.1416 1.78684 40.2904 1.80433 40.4391 1.80287C40.5691 1.80159 40.6989 1.79657 40.8289 1.79624C40.8979 1.79607 40.987 1.80854 41.0514 1.77637" stroke="#5CDB95" stroke-width="0.01"/>
<path d="M39.998 1.75153C40.1796 1.75153 40.3603 1.76146 40.5418 1.76146C40.6481 1.76146 40.7546 1.76808 40.8607 1.77416C40.9177 1.77743 40.9744 1.78631 41.0315 1.78631" stroke="#5CDB95" stroke-width="0.01"/>
<path d="M40.2862 1.7565C40.409 1.7565 40.5397 1.74516 40.6622 1.75982C40.803 1.77666 40.9465 1.7819 41.0862 1.80619" stroke="#5CDB95" stroke-width="0.01"/>
<path d="M40.3111 1.76148C40.4961 1.74606 40.6857 1.75651 40.8714 1.75651C40.9614 1.75651 41.051 1.76148 41.1408 1.76148" stroke="#5CDB95" stroke-width="0.01"/>
<path d="M39.993 1.75153C40.0092 1.765 40.0198 1.77997 40.0328 1.79625" stroke="#5CDB95" stroke-width="0.01"/>
<path d="M39.993 1.76645C40.0225 1.85605 40.0278 1.93126 40.0278 2.02483" stroke="#5CDB95" stroke-width="0.01"/>
<path d="M39.9881 1.76645C40.0019 1.81986 39.9983 1.87791 40.0027 1.93263C40.0055 1.96793 40.003 2.00432 40.003 2.03973" stroke="#5CDB95" stroke-width="0.01"/>
<path d="M40.2614 1.82607C40.2823 1.81816 40.2957 1.80575 40.2798 1.82828C40.2642 1.85055 40.3625 1.84093 40.3751 1.8465C40.3822 1.84964 40.3472 1.85561 40.3547 1.85754C40.3867 1.86581 40.4216 1.85724 40.454 1.86223C40.4694 1.8646 40.4385 1.87451 40.4364 1.88018C40.4293 1.89873 40.4276 1.89137 40.3977 1.90364C40.376 1.91256 40.366 1.91397 40.3905 1.92517C40.4142 1.93596 40.4337 1.93069 40.4275 1.95802C40.4255 1.96685 40.4383 1.98035 40.4319 1.98562C40.4218 1.99406 40.379 1.99975 40.3801 2.01765C40.3822 2.05405 40.4964 2.04043 40.5081 2.02482C40.5144 2.01654 40.4403 1.99453 40.4364 1.9928C40.421 1.98614 40.4085 1.9754 40.3955 1.9652" stroke="#5CDB95" stroke-width="0.05"/>
<path d="M40.0676 2.06954C40.1223 2.08323 40.0814 1.95977 40.0651 1.93317C40.0534 1.91405 40.0378 1.89631 40.0378 1.87354C40.0378 1.83453 40.0378 1.79551 40.0378 1.7565" stroke="#5CDB95" stroke-width="0.1"/>
<path d="M40.0427 1.90059C40.0544 1.87342 40.078 1.83995 40.0828 1.81143C40.0851 1.79745 40.1168 1.80121 40.1275 1.80121C40.1763 1.80121 40.2223 1.80334 40.2685 1.79238C40.3137 1.78169 40.3767 1.79372 40.4206 1.80397C40.4888 1.81988 40.5598 1.80618 40.6291 1.80618C40.7019 1.80618 40.7747 1.82606 40.848 1.82606C40.8782 1.82606 40.9069 1.83544 40.9371 1.836C40.9734 1.83667 41.0153 1.8291 41.0503 1.83986C41.0604 1.84297 41.0337 1.83001 41.031 1.82827C41.0164 1.81896 41.0028 1.82109 40.9857 1.82109C40.969 1.82109 40.9518 1.81992 40.9352 1.82137C40.8796 1.8262 40.8144 1.82937 40.7599 1.84234C40.6531 1.86778 40.5491 1.88669 40.4402 1.9028C40.3882 1.91049 40.3364 1.91914 40.2854 1.93178C40.2666 1.93644 40.2473 1.94476 40.228 1.94724C40.1832 1.95298 40.127 1.9254 40.0836 1.94255C40.0731 1.94669 40.0668 1.95525 40.0549 1.95525C40.0504 1.95525 40.0374 1.95286 40.0339 1.95635C40.0266 1.96362 40.0556 2.01497 40.0593 2.01294C40.0824 2.00039 40.1043 1.9742 40.1178 1.95249C40.1262 1.93905 40.1368 1.91692 40.1333 1.89949C40.1299 1.88267 40.1167 1.89206 40.1112 1.89949C40.1042 1.90897 40.086 1.9483 40.1162 1.94089C40.1383 1.93547 40.1676 1.92029 40.1879 1.91025C40.2072 1.90074 40.2158 1.88926 40.2117 1.91329C40.21 1.92265 40.2052 1.94565 40.2139 1.94172C40.214 1.94166 40.2204 1.93847 40.2205 1.93813C40.2225 1.93155 40.2182 1.96231 40.2133 1.95746C40.2039 1.94807 40.2101 1.92966 40.1946 1.91964C40.1888 1.91592 40.1994 1.90986 40.1946 1.89673C40.1884 1.87983 40.195 1.8767 40.2073 1.88568C40.2114 1.88874 40.2108 1.89543 40.2125 1.90031C40.2216 1.92599 40.2016 1.94246 40.2001 1.96684C40.1992 1.98016 40.2179 1.98051 40.2067 1.98837C40.1909 1.99953 40.1968 1.9975 40.1968 1.98534C40.1968 1.98488 40.1963 1.98385 40.1968 1.98396C40.2257 1.99067 40.2026 1.99297 40.2487 1.99169C40.2706 1.99108 40.2925 1.97631 40.3138 1.98175C40.328 1.98538 40.3439 1.97782 40.3563 1.9881C40.3655 1.99571 40.3856 2.00762 40.3974 2.01046C40.4031 2.01182 40.4417 1.97948 40.4463 1.97733C40.4705 1.96598 40.4574 1.97818 40.4452 1.98147C40.4353 1.98413 40.4648 1.98785 40.475 1.98892C40.4889 1.99039 40.5012 1.97603 40.5142 1.98782C40.524 1.99672 40.5039 1.99802 40.5272 1.98534C40.5411 1.97776 40.552 1.97416 40.5678 1.97843C40.5741 1.98015 40.5805 1.99217 40.5852 1.98754C40.5987 1.97405 40.5998 1.94424 40.6252 1.94255C40.6531 1.94068 40.6325 1.97546 40.6517 1.96298C40.6699 1.9511 40.6734 1.96487 40.6884 1.97071C40.7022 1.97607 40.711 1.95115 40.724 1.95856C40.7361 1.96548 40.7241 1.99233 40.732 1.99583C40.739 1.99893 40.7476 1.99304 40.7549 1.99527C40.762 1.99742 40.7692 2.00763 40.7754 2.00355C40.7923 1.99224 40.7883 1.9711 40.8146 1.96795C40.8146 1.96794 40.8352 1.97629 40.8361 1.96574C40.8366 1.95958 40.8295 1.93221 40.8284 1.92543C40.8263 1.91378 40.8334 1.94958 40.8411 1.95856C40.8433 1.96119 40.8409 1.95056 40.838 1.94862C40.8305 1.94352 40.8137 1.94045 40.8054 1.94062C40.7834 1.94107 40.8101 1.95394 40.8068 1.96187C40.8033 1.97047 40.7719 1.95895 40.7834 1.95111C40.7982 1.94097 40.8372 1.93731 40.8482 1.9558C40.866 1.98569 40.8124 1.97451 40.8642 1.96463C40.879 1.96183 40.9052 1.96995 40.8888 1.98865C40.8851 1.99286 40.8958 1.97854 40.9012 1.97733C40.923 1.97252 40.937 1.97698 40.952 1.99362C40.9693 2.01268 40.9535 2.02402 40.9537 1.99721C40.9539 1.97336 40.9733 1.9745 40.9642 1.96739C40.952 1.95793 40.9333 1.91526 40.9363 1.9304C40.9381 1.93968 40.9396 1.96709 40.9252 1.95663C40.9091 1.94481 40.8915 1.94931 40.8725 1.94531C40.8456 1.93964 40.8183 1.93164 40.7914 1.92543C40.7797 1.92275 40.7585 1.89913 40.7585 1.91108C40.7585 1.91948 40.7434 1.92937 40.7502 1.93289C40.7577 1.93677 40.7833 1.93885 40.7748 1.93924C40.7507 1.94033 40.7614 1.95033 40.7533 1.96518" stroke="#5CDB95" stroke-width="0.1"/>
<path d="M40.0626 1.86583C40.1676 1.86583 40.2729 1.8637 40.3779 1.86693C40.4536 1.86926 40.5284 1.88216 40.6042 1.8857C40.8002 1.89488 40.9934 1.90075 41.1883 1.92435C41.2045 1.92631 41.3273 1.92735 41.3037 1.95692C41.2565 2.01617 41.1676 2.05768 41.0928 2.03808C41.0498 2.02682 41.0095 2.00385 40.9664 1.99115C40.945 1.98485 40.9242 1.97912 40.9023 1.97514" stroke="#5CDB95" stroke-width="0.1"/>
<path d="M40.9967 1.77637C40.9437 1.77637 40.8913 1.78134 40.8383 1.78134C40.8022 1.78134 40.7633 1.77634 40.7284 1.7863" stroke="#5CDB95" stroke-width="0.01"/>
<path d="M40.7284 1.77637C40.8024 1.74295 40.8747 1.74959 40.952 1.76119C40.9909 1.76702 41.0035 1.77181 40.9573 1.78603C40.9098 1.80065 40.8652 1.80018 40.8168 1.79128C40.7897 1.7863 40.7632 1.77786 40.7356 1.77637C40.7308 1.77611 40.7281 1.77517 40.7262 1.7703C40.7215 1.75771 40.7641 1.76146 40.7696 1.76146C40.8306 1.76146 40.8916 1.76146 40.9526 1.76146C40.9886 1.76146 40.9776 1.7684 40.9476 1.7714C40.9138 1.77478 40.8811 1.77637 40.8471 1.77637C40.8395 1.77637 40.8885 1.77637 40.9018 1.77637C40.9151 1.77637 40.8104 1.77637 40.8742 1.77637C40.8801 1.77637 40.8861 1.77715 40.8919 1.77609C40.8938 1.77574 40.8883 1.77429 40.8863 1.77388C40.8779 1.77213 40.8607 1.7714 40.8607 1.7714C40.8607 1.7714 40.8875 1.7714 40.901 1.7714C40.9175 1.7714 40.9263 1.7714 40.9029 1.7714C40.8856 1.7714 40.851 1.7714 40.851 1.7714C40.851 1.7714 40.8891 1.7714 40.9081 1.7714C40.9195 1.7714 40.9308 1.7714 40.9421 1.7714" stroke="#5CDB95" stroke-width="0.01"/>
<path d="M40.8676 1.78136C40.8417 1.77218 40.8091 1.77142 40.8526 1.77142" stroke="#5CDB95" stroke-width="0.01"/>
<path d="M40.957 1.76147H41.0116" stroke="#5CDB95" stroke-width="0.01"/>
<path d="M40.9669 1.78134H41.0166" stroke="#5CDB95" stroke-width="0.01"/>
<path d="M41.0117 1.77639L40.9669 1.77142" stroke="#5CDB95" stroke-width="0.01"/>
<path d="M40.9669 1.77142H41.0166" stroke="#5CDB95" stroke-width="0.01"/>
<path d="M40.957 1.77637H41.0116" stroke="#5CDB95" stroke-width="0.01"/>
<path d="M41.0216 1.79128L40.9023 1.78632" stroke="#5CDB95" stroke-width="0.01"/>
<path d="M40.7682 1.77637C40.7296 1.77836 40.692 1.78569 40.6539 1.79127" stroke="#5CDB95" stroke-width="0.01"/>
<path d="M39.9961 58.3281C40.0963 58.326 40.1951 58.31 40.2951 58.3049C40.4161 58.2987 40.5377 58.2937 40.6582 58.2806C40.7442 58.2712 40.8291 58.2653 40.9154 58.2591C40.9682 58.2553 41.0217 58.2497 41.0742 58.2422" stroke="#5CDB95" stroke-width="0.01"/>
<path d="M40.1328 58.3242C40.1852 58.3252 40.2375 58.3281 40.2899 58.3281C40.371 58.3281 40.4505 58.3211 40.5312 58.3173C40.6202 58.3131 40.709 58.3091 40.7969 58.293C40.8442 58.2843 40.8958 58.2743 40.9375 58.25" stroke="#5CDB95" stroke-width="0.01"/>
<path d="M40.7109 58.3086C40.7982 58.2978 40.8857 58.2896 40.9722 58.2734C41.0045 58.2674 41.0386 58.2657 41.0703 58.2578" stroke="#5CDB95" stroke-width="0.01"/>
<path d="M40.0508 57.9883C40.065 58.1004 40.0508 58.2156 40.0508 58.3281" stroke="#5CDB95" stroke-width="0.1"/>
<path d="M40.0664 58.2773C40.2234 58.2773 40.3804 58.2773 40.5373 58.2773C40.5824 58.2773 40.6249 58.2803 40.668 58.2648C40.7212 58.2456 40.7763 58.25 40.832 58.25C40.8555 58.25 40.8789 58.25 40.9023 58.25C40.9222 58.25 40.9473 58.2542 40.9666 58.2483C41 58.2379 41.0325 58.2272 41.0664 58.2188" stroke="#5CDB95" stroke-width="0.1"/>
<path d="M40.1523 58.2266C40.1107 58.2091 40.1147 58.1422 40.112 58.1046C40.1113 58.0946 40.1058 57.9602 40.1137 58.0449C40.1177 58.0871 40.1141 58.1411 40.1309 58.1808C40.1354 58.1916 40.142 58.2005 40.1552 58.194C40.1856 58.179 40.1881 58.1278 40.1871 58.1003C40.1869 58.0955 40.1652 57.9647 40.1332 57.9983C40.1266 58.0053 40.13 58.0242 40.1359 58.03C40.1575 58.0512 40.2122 58.0387 40.2359 58.0365C40.3005 58.0304 40.3643 58.0204 40.4293 58.0195C40.498 58.0186 40.5667 58.0171 40.6354 58.0154C40.7679 58.0122 40.9005 58.0061 41.033 58.0009C41.0347 58.0008 41.0844 57.9946 41.0673 58.0087C41.0495 58.0233 41.027 58.026 41.0056 58.0313C40.9913 58.0348 41 58.1269 41 58.1415C41 58.1571 41.0012 58.1733 41 58.1888C40.9977 58.2176 40.9294 58.2066 40.9143 58.2066C40.7268 58.2066 40.5397 58.2026 40.3522 58.2068C40.299 58.208 40.2445 58.2096 40.1914 58.2062C40.1816 58.2055 40.1573 58.2086 40.1673 58.1938C40.1832 58.1703 40.2019 58.1403 40.2279 58.1272C40.2781 58.1017 40.3476 58.1121 40.4015 58.1124C40.4844 58.113 40.5667 58.1057 40.6495 58.1016C40.7513 58.0965 40.8532 58.0929 40.9549 58.0859C40.9689 58.085 40.9833 58.0837 40.9974 58.0829C41.0062 58.0824 41.0299 58.0776 41.0239 58.084C41.0063 58.1026 40.9663 58.1136 40.9431 58.1224C40.8872 58.1436 40.8271 58.1596 40.7678 58.1675C40.6915 58.1777 40.612 58.1719 40.5352 58.1719" stroke="#5CDB95" stroke-width="0.1"/>
<rect x="41" y="2" width="1" height="1" fill="#5CDB95"/>
<rect x="41" y="57" width="1" height="1" fill="#5CDB95"/>
<rect x="42" y="4" width="1" height="52" fill="#05386B"/>
<rect x="45" y="7" width="1" height="46" fill="#05386B"/>
</svg>
